<?xml version="1.0" standalone="no"?>
<!DOCTYPE svg PUBLIC "-//W3C//DTD SVG 20010904//EN"
 "http://www.w3.org/TR/2001/REC-SVG-20010904/DTD/svg10.dtd">
<svg version="1.0" xmlns="http://www.w3.org/2000/svg"
 width="491.000000pt" height="360.000000pt" viewBox="0 0 491.000000 360.000000"
 preserveAspectRatio="xMidYMid meet">

<g transform="translate(0.000000,360.000000) scale(0.100000,-0.100000)"
fill="#000000" stroke="none">
<path d="M2292 3129 c-95 -47 -141 -148 -126 -279 16 -145 11 -209 -21 -270
-17 -30 -31 -58 -33 -62 -6 -14 63 15 96 39 18 13 42 43 55 66 21 40 22 52 19
218 l-3 176 35 67 c19 36 31 66 28 66 -4 0 -26 -10 -50 -21z"/>
<path d="M2545 3103 c-80 -42 -109 -102 -104 -212 7 -185 5 -203 -24 -259
l-27 -52 37 15 c47 20 77 48 98 91 13 27 15 62 13 181 -3 145 -3 149 25 197
15 27 27 50 27 52 0 7 -15 3 -45 -13z"/>
<path d="M1577 2373 c-9 -8 -9 -145 -1 -196 5 -29 25 -57 90 -126 104 -110
179 -171 373 -305 180 -123 158 -120 376 -55 239 72 298 77 381 32 31 -16 33
-16 77 10 62 37 158 144 195 220 48 97 62 166 62 304 l0 123 -773 0 c-426 0
-777 -3 -780 -7z"/>
<path d="M410 1969 l0 -361 38 6 c20 3 62 8 92 11 30 3 72 8 93 11 l37 6 -2
331 -3 332 -100 12 c-55 6 -112 12 -127 12 l-28 1 0 -361z"/>
<path d="M910 2260 c-63 -16 -130 -30 -147 -30 l-33 0 0 -254 c0 -288 -6 -270
85 -260 72 9 188 -18 256 -59 30 -18 131 -97 224 -177 256 -216 318 -250 454
-250 103 0 611 39 651 50 34 9 184 91 350 192 41 25 82 57 90 72 13 23 13 29
0 54 -9 15 -28 33 -43 40 -15 7 -27 18 -27 23 0 6 -16 17 -36 25 -43 18 -84
11 -278 -47 -71 -21 -145 -41 -165 -45 -67 -11 -68 -12 -74 -60 -8 -77 -71
-124 -164 -124 -71 1 -103 16 -273 130 -182 121 -255 158 -336 168 -54 6 -59
9 -59 32 0 24 2 25 67 23 86 -1 157 -35 371 -177 88 -59 174 -108 194 -112 78
-15 143 16 143 66 0 36 -26 67 -96 115 -196 133 -284 204 -434 350 -227 220
-323 272 -515 281 -76 4 -108 0 -205 -26z"/>
<path d="M4345 1534 c-55 -7 -101 -13 -103 -13 -1 -1 -1 -151 0 -333 l3 -333
105 -12 c58 -6 115 -12 128 -12 l22 -1 0 360 0 360 -27 -1 c-16 -1 -73 -8
-128 -15z"/>
<path d="M3695 1493 c-77 -16 -185 -66 -255 -118 -25 -19 -94 -85 -155 -147
-124 -127 -193 -185 -378 -313 -159 -110 -190 -158 -131 -204 30 -24 120 -29
157 -9 12 6 94 58 182 116 178 117 235 146 313 163 70 14 104 6 100 -24 -3
-19 -11 -23 -62 -29 -76 -10 -154 -49 -331 -167 -173 -116 -204 -131 -278
-131 -105 0 -179 63 -164 140 6 26 4 27 -86 48 -51 12 -144 37 -207 56 -147
45 -210 47 -255 9 -18 -16 -45 -36 -59 -46 -37 -26 -34 -62 8 -101 41 -37 338
-210 398 -232 65 -23 683 -67 745 -54 85 20 176 79 380 249 253 210 280 224
445 229 l116 4 4 222 c2 121 1 238 -1 259 -3 35 -5 37 -40 37 -20 0 -61 7 -91
15 -84 24 -201 44 -245 44 -22 0 -71 -7 -110 -16z"/>
</g>
</svg>
